<?xml version="1.0" standalone="no"?>
<!DOCTYPE svg PUBLIC "-//W3C//DTD SVG 20010904//EN"
 "http://www.w3.org/TR/2001/REC-SVG-20010904/DTD/svg10.dtd">
<svg version="1.0" xmlns="http://www.w3.org/2000/svg"
 width="205.000000pt" height="268.000000pt" viewBox="0 0 205.000000 268.000000"
 preserveAspectRatio="xMidYMid meet">

<g transform="translate(0.000000,268.000000) scale(0.100000,-0.100000)"
fill="#000000" stroke="none">
<path d="M1003 2636 c-51 -23 -63 -59 -63 -184 l0 -110 -44 -11 c-25 -6 -48
-11 -52 -11 -9 0 6 203 17 216 10 12 0 82 -13 90 -16 10 -62 -43 -64 -73 -3
-55 -4 -59 -18 -78 -13 -18 -14 -18 -26 5 -7 14 -13 40 -12 58 2 37 -34 94
-56 90 -14 -3 -72 -137 -72 -168 0 -10 5 -22 10 -25 10 -6 14 -75 5 -75 -13 0
-68 46 -74 62 -3 10 -48 38 -99 63 -74 35 -94 42 -98 30 -7 -17 25 -105 38
-105 9 0 43 -73 54 -116 5 -19 2 -24 -14 -24 -11 0 -25 7 -33 16 -9 11 -22 14
-48 9 -50 -9 -55 -17 -30 -49 25 -32 19 -44 -14 -27 -17 9 -32 9 -66 -2 -25
-7 -46 -17 -48 -23 -6 -18 73 -67 96 -59 14 4 37 -5 73 -28 l54 -34 -12 -109
c-7 -60 -22 -138 -34 -174 -26 -75 -30 -176 -10 -235 24 -74 53 -69 44 8 -3
29 -1 63 5 77 16 41 13 -222 -4 -305 -8 -38 -30 -101 -49 -140 -33 -65 -64
-108 -226 -305 -100 -122 -120 -162 -120 -246 0 -75 16 -111 62 -135 30 -16
47 4 24 30 -24 27 -30 80 -12 126 l15 40 0 -48 c2 -123 110 -234 188 -193 16
8 35 26 42 39 l13 25 64 -41 c34 -23 90 -59 123 -79 34 -21 61 -41 61 -46 0
-4 -6 -17 -14 -28 -14 -19 -15 -19 -38 4 -28 25 -38 20 -38 -19 0 -51 53 -86
105 -69 52 17 75 53 75 116 0 30 2 54 5 54 16 0 63 -31 69 -45 12 -33 5 -64
-19 -83 -14 -11 -25 -25 -25 -31 0 -15 44 -24 83 -17 l33 6 12 -64 c7 -35 12
-81 12 -102 0 -59 11 -69 75 -68 73 0 94 19 77 67 -17 46 1 143 31 167 21 17
23 17 47 -2 18 -14 28 -35 36 -78 6 -32 7 -65 3 -72 -12 -18 -11 -66 1 -73 5
-3 32 -8 59 -12 64 -7 91 16 91 80 0 23 5 76 11 118 l12 75 36 -18 c42 -21 90
-23 116 -5 21 16 12 37 -15 37 -34 0 -54 66 -27 88 6 6 25 14 41 18 27 7 29 6
22 -20 -10 -39 11 -103 39 -122 32 -21 109 -16 113 8 2 11 -3 18 -12 18 -22 0
-46 40 -46 75 0 29 6 34 71 65 38 19 86 50 106 70 74 74 115 204 94 300 -6 29
-10 55 -8 56 4 4 84 -95 119 -146 20 -29 24 -113 7 -157 -14 -38 -47 -72 -86
-88 -18 -8 -33 -19 -33 -24 0 -29 111 -26 156 4 41 26 68 98 61 162 -6 60 -40
126 -158 313 -90 143 -157 282 -203 424 l-36 108 19 42 c62 140 51 288 -31
420 -17 28 -39 77 -49 108 -14 49 -15 59 -3 69 22 18 58 -16 120 -109 50 -76
71 -166 56 -250 -6 -36 -9 -69 -6 -74 12 -19 27 -5 52 50 20 43 27 73 27 123
0 57 -5 76 -43 151 -28 58 -61 106 -101 146 -49 50 -59 66 -64 106 -14 101
-76 177 -187 230 -56 26 -79 31 -167 34 l-101 4 -6 43 c-12 77 -86 121 -153
91z m-299 -91 c-6 -24 77 -211 89 -199 4 4 7 21 6 38 -1 30 -1 30 -9 6 -6 -21
-8 -22 -15 -8 -4 10 2 45 14 82 12 36 21 74 21 84 0 10 7 27 16 38 14 18 15
15 9 -35 -3 -30 -8 -59 -11 -63 -3 -5 -6 -50 -6 -101 0 -50 -4 -102 -9 -114
-8 -21 -6 -23 29 -22 31 2 32 3 9 6 -42 6 -28 26 32 46 61 20 72 17 45 -15
-14 -16 -14 -19 -2 -10 14 12 17 10 21 -15 3 -22 4 -19 6 12 2 52 32 116 66
143 16 13 59 32 97 43 156 48 324 7 421 -101 45 -50 74 -123 62 -159 -3 -11
16 -37 61 -81 45 -45 77 -88 104 -143 35 -69 40 -88 39 -146 -1 -86 -17 -130
-18 -49 -2 154 -89 292 -229 362 -84 42 -133 58 -84 27 32 -20 57 -63 53 -88
-1 -7 2 -13 8 -13 9 0 31 -52 31 -72 0 -6 -33 21 -74 59 -41 37 -93 78 -115
91 -59 32 -51 20 12 -19 63 -39 181 -156 225 -224 94 -144 87 -356 -16 -472
-19 -22 -31 -30 -28 -19 5 15 4 17 -8 7 -18 -15 -21 -10 -45 76 -20 75 -19 85
7 76 13 -3 12 0 -3 11 -11 8 -24 19 -30 23 -21 17 -66 33 -59 22 4 -7 1 -10
-7 -7 -8 3 -14 10 -14 17 0 7 -8 18 -17 25 -21 15 -24 46 -5 46 6 1 -3 7 -20
15 -18 8 -33 18 -33 23 0 14 -25 22 -48 15 -18 -4 -15 -10 29 -49 27 -24 59
-49 71 -55 14 -8 18 -14 10 -17 -7 -2 -34 8 -60 23 -33 19 -40 21 -22 6 14
-11 29 -21 33 -21 5 0 5 -4 2 -10 -3 -5 -20 -10 -37 -10 -18 0 -57 -7 -89 -16
-42 -12 -59 -22 -63 -37 -7 -29 0 -33 24 -12 11 10 20 14 20 9 0 -5 4 -3 9 4
8 14 68 31 107 32 12 0 31 -9 44 -20 20 -17 22 -24 12 -45 -9 -19 -9 -24 1
-22 6 1 15 10 19 20 4 9 15 17 24 17 13 0 14 3 5 14 -16 19 13 30 40 16 17 -9
19 -22 18 -98 0 -58 -3 -80 -9 -67 -14 32 -11 6 10 -89 26 -115 25 -118 -6
-72 -23 33 -25 42 -15 64 11 23 9 28 -18 50 -18 13 -31 33 -31 45 0 18 -2 19
-10 7 -5 -8 -17 -15 -26 -15 -10 0 -32 -23 -51 -52 -18 -29 -31 -53 -28 -53 3
0 19 23 36 50 17 28 34 50 38 50 7 0 76 -43 90 -56 8 -7 -72 -125 -98 -144
l-29 -20 -43 31 -44 31 30 -29 c35 -34 62 -46 70 -33 4 6 16 10 28 10 20 0 20
0 1 -15 -15 -12 -16 -14 -2 -9 24 8 50 -20 59 -65 8 -35 8 -35 5 7 l-4 44 24
-33 c28 -39 41 -96 25 -112 -8 -8 -11 -7 -11 4 0 9 -9 24 -20 34 -20 18 -21
18 -38 -6 -9 -13 -15 -32 -14 -41 4 -21 1 -22 -31 -7 -30 14 -53 54 -49 85 2
13 -1 24 -7 24 -10 0 -25 34 -26 57 0 7 -24 30 -52 51 -29 22 -71 59 -94 83
-39 41 -38 40 5 -13 l47 -57 -33 -9 -32 -8 47 -13 c26 -8 47 -17 47 -21 0 -17
-45 -62 -81 -80 -42 -22 -49 -18 -22 12 14 16 14 18 1 18 -9 0 -21 6 -27 14
-10 11 -8 15 6 18 10 2 -8 4 -39 3 -32 0 -53 -2 -47 -3 13 -5 -9 -32 -27 -32
-19 0 -29 47 -14 65 16 19 17 19 -55 34 -33 7 -84 23 -113 36 -42 20 -56 32
-71 65 l-18 41 -6 -67 c-10 -99 -50 -146 -114 -129 l-28 7 25 10 c38 14 80 59
80 85 0 27 -34 118 -83 222 l-34 74 4 -49 c6 -54 -30 -220 -67 -314 -36 -92
-108 -206 -183 -288 -120 -132 -157 -203 -157 -303 0 -54 2 -58 34 -78 37 -23
67 -26 98 -10 28 15 34 4 14 -26 -12 -19 -25 -25 -50 -25 -67 0 -135 89 -136
176 0 49 30 140 67 203 39 68 2 32 -53 -51 -58 -87 -87 -161 -82 -210 2 -21 2
-38 -1 -38 -14 0 -30 41 -31 76 0 63 47 143 179 304 66 79 134 168 151 196 74
123 105 295 93 520 l-6 117 -19 -37 c-10 -20 -25 -62 -32 -93 l-14 -58 -1 65
c-1 71 14 139 47 213 11 26 17 47 13 47 -4 0 -6 26 -4 58 6 93 10 102 41 103
l27 1 -30 7 c-17 4 -56 24 -88 44 -37 24 -69 37 -91 37 -35 0 -68 24 -44 32 7
3 63 3 125 0 61 -3 118 -2 126 1 12 5 7 26 -28 119 -25 66 -50 114 -58 116
-15 3 -33 50 -23 60 9 8 56 -27 56 -42 0 -7 12 -18 28 -25 22 -10 25 -10 15 0
-23 23 -14 30 17 14 32 -16 42 -42 13 -31 -31 12 -4 -7 70 -50 70 -41 72 -42
79 -21 3 12 6 33 6 47 0 22 -1 22 -8 -5 -7 -26 -8 -22 -9 23 -1 31 -6 52 -12
52 -7 0 -9 10 -4 27 9 38 12 39 35 18 19 -18 20 -17 20 3 0 11 -4 24 -10 27
-11 7 -14 58 -3 68 13 13 43 -25 37 -48z m396 23 c13 -25 13 -31 0 -55 -19
-34 -69 -43 -94 -18 -22 22 -21 81 2 94 31 19 75 9 92 -21z m-718 -307 c2 -5
21 -11 43 -15 22 -3 41 -5 42 -6 1 0 7 -9 13 -20 8 -16 8 -20 -4 -20 -10 0
-13 6 -9 18 5 14 3 14 -9 -2 -15 -19 -17 -19 -41 -3 -15 9 -35 17 -45 17 -10
0 -27 9 -37 20 -18 20 -17 20 13 20 17 0 32 -4 34 -9z m1188 -140 c0 -12 -20
-25 -27 -18 -7 7 6 27 18 27 5 0 9 -4 9 -9z m-219 -401 c5 0 9 -7 9 -15 0 -21
-14 -19 -36 7 -18 20 -18 21 -1 15 10 -4 23 -7 28 -7z m102 -107 c3 -5 -6 -9
-20 -10 -19 -1 -22 1 -12 8 17 11 26 11 32 2z m74 -223 c-2 -9 2 -21 9 -28 7
-7 18 -30 24 -52 6 -21 40 -97 77 -167 129 -249 142 -279 154 -332 31 -148
-36 -288 -168 -351 -86 -41 -123 -67 -123 -86 0 -8 3 -13 8 -11 4 3 14 -17 22
-43 l16 -48 -22 10 c-55 25 -55 121 0 173 83 79 118 163 122 290 1 44 5 103 9
132 13 90 0 135 -71 239 -73 106 -82 137 -89 292 l-5 107 20 -55 c12 -30 19
-62 17 -70z m-890 -42 c22 -63 22 -71 8 -98 -19 -37 -50 -54 -86 -46 -38 7
-37 -9 1 -29 43 -22 87 -19 115 9 21 21 45 81 45 115 0 9 10 4 27 -13 15 -16
56 -36 102 -50 l76 -24 -47 -12 c-40 -10 -50 -19 -69 -54 -12 -22 -32 -78 -45
-124 -12 -45 -38 -108 -57 -140 -54 -89 -109 -201 -103 -210 3 -5 6 -25 8 -46
1 -20 8 -42 15 -48 15 -12 17 -4 4 20 -11 22 0 54 16 44 6 -4 15 -20 19 -36 5
-21 4 -27 -5 -22 -6 4 -11 4 -12 -1 0 -4 -2 -21 -4 -38 -5 -35 7 -51 43 -59
15 -4 48 -17 74 -29 35 -16 47 -28 48 -44 0 -12 5 -25 10 -28 6 -3 10 -14 10
-23 0 -14 -3 -13 -14 4 -8 11 -57 42 -108 68 -170 86 -211 142 -216 297 -4
110 16 194 75 317 43 88 38 105 -7 26 -82 -146 -110 -317 -73 -448 14 -51 27
-71 80 -124 71 -71 92 -120 73 -177 -14 -43 -59 -64 -98 -45 l-27 13 31 7 c41
9 54 18 54 38 0 13 2 13 15 -4 13 -17 14 -17 15 -2 0 27 -58 78 -151 132 -143
84 -188 142 -189 239 0 88 62 248 140 361 16 24 41 70 55 102 27 60 85 268 85
307 1 30 35 -34 67 -125z m1028 -40 c51 -150 101 -250 215 -433 103 -166 127
-210 108 -200 -7 3 -4 -1 6 -9 16 -13 20 -29 20 -78 0 -91 -28 -130 -101 -143
-39 -6 -43 6 -8 25 37 20 64 84 66 162 l2 67 -94 118 c-108 135 -173 224 -219
303 -57 97 -129 293 -101 275 5 -2 19 7 31 20 13 14 26 23 28 20 3 -2 24 -60
47 -127z m-136 -134 c46 -64 92 -138 102 -165 24 -62 24 -130 2 -177 l-18 -37
-7 50 c-4 28 -16 73 -27 100 l-20 50 1 -66 c1 -36 -4 -74 -10 -85 -10 -16 -11
-13 -12 22 0 70 -20 154 -66 276 -70 188 -61 193 55 32z m-92 39 c6 -21 10
-39 9 -41 -2 -1 -15 7 -29 19 -22 17 -25 24 -17 40 15 28 24 24 37 -18z m-217
-3 c12 -8 11 -10 -7 -10 -12 0 -25 5 -28 10 -8 13 15 13 35 0z m-257 -7 c-21
-8 -15 -47 12 -83 14 -19 25 -35 25 -36 0 -11 -67 24 -90 48 -39 38 -38 55 3
67 34 10 71 13 50 4z m-91 -72 c25 -37 40 -46 157 -87 21 -7 -21 -34 -64 -41
-55 -9 -85 4 -101 42 -21 51 -18 56 24 32 37 -22 37 -22 -10 24 -27 25 -48 51
-48 57 0 22 15 12 42 -27z m383 9 c-8 -16 -32 -41 -52 -55 -21 -14 -33 -25
-27 -25 6 0 23 9 37 20 33 26 35 25 29 -7 -12 -69 -77 -91 -156 -54 l-40 19
60 18 c44 14 70 31 104 65 53 55 67 61 45 19z m209 -149 c1 -40 14 -39 29 2
l11 32 13 -65 c6 -36 12 -86 13 -112 0 -27 4 -48 9 -48 5 0 17 21 27 46 15 41
19 44 26 25 4 -11 6 -27 4 -34 -3 -6 -7 -24 -10 -40 -6 -25 -5 -27 19 -21 24
6 25 5 25 -45 0 -67 -33 -165 -73 -215 -29 -37 -46 -46 -175 -101 -27 -12 -49
-30 -58 -48 -18 -33 -10 -50 10 -22 12 17 14 16 25 -18 7 -20 17 -37 22 -37 6
0 8 -4 4 -10 -3 -5 -13 -6 -23 -3 -27 10 -74 45 -68 51 3 3 1 11 -5 18 -7 8
-8 29 -4 53 6 37 10 41 75 70 38 16 71 35 75 41 3 6 12 7 18 4 7 -4 9 -4 5 0
-4 5 -3 19 3 33 6 16 5 22 -1 18 -6 -4 -8 30 -4 97 5 79 3 111 -8 138 -14 33
-14 29 -11 -75 l4 -110 -35 40 c-19 22 -35 43 -36 48 0 4 -17 26 -39 50 -57
62 -66 84 -42 97 11 5 31 10 45 10 13 0 32 3 41 6 24 10 77 131 69 158 -5 17
-4 19 6 9 7 -6 13 -26 14 -42z m-424 -55 c0 -67 -18 -92 -99 -135 -56 -29 -92
-59 -57 -45 12 5 16 0 16 -20 0 -16 -6 -26 -14 -26 -18 0 -30 67 -21 119 8 46
27 71 74 96 30 15 33 15 28 1 -10 -26 -1 -18 27 24 14 22 31 40 36 40 6 0 10
-24 10 -54z m69 4 c25 -45 32 -50 24 -19 l-6 22 33 -19 c18 -10 41 -32 51 -49
19 -30 36 -111 26 -122 -12 -11 -96 48 -136 94 -40 47 -59 98 -47 128 8 22 30
8 55 -35z m-834 -145 c-19 -76 -19 -108 5 -175 18 -51 18 -56 3 -67 -27 -21
-67 -15 -93 12 -20 22 -22 31 -17 85 5 61 32 119 86 187 32 41 36 32 16 -42z
m947 -77 c-15 -15 -26 -4 -18 18 5 13 9 15 18 6 9 -9 9 -15 0 -24z m-532 -92
c0 -3 -4 -8 -10 -11 -5 -3 -10 -1 -10 4 0 6 5 11 10 11 6 0 10 -2 10 -4z m735
-75 c-21 -20 -75 -37 -75 -24 0 8 66 40 85 42 5 1 1 -7 -10 -18z m-665 -38
c64 -29 161 -40 238 -25 43 8 60 7 84 -5 44 -22 174 -13 222 15 20 12 36 17
36 12 0 -20 -84 -51 -150 -57 -51 -4 -75 -2 -100 11 -28 13 -43 14 -103 5 -88
-14 -161 -5 -216 26 -24 14 -51 25 -60 25 -9 0 -26 7 -37 16 -18 14 -18 15 6
9 14 -4 50 -18 80 -32z m237 -88 c-4 -11 -119 -19 -154 -10 -51 12 -18 24 67
22 55 -1 89 -6 87 -12z m84 -20 c4 -16 9 -57 12 -89 l4 -59 -23 26 c-14 17
-21 34 -17 49 4 22 4 22 -11 4 -9 -11 -16 -25 -16 -30 0 -6 -7 -19 -15 -29
-12 -17 -13 -9 -8 60 6 101 8 105 40 101 20 -2 29 -10 34 -33z m180 12 c-10
-10 -141 -11 -152 0 -4 4 30 8 76 8 46 0 80 -4 76 -8z m-437 -80 c3 4 6 0 6
-8 -1 -23 -35 -57 -65 -65 l-28 -7 23 31 c16 22 21 39 18 63 l-5 33 22 -27
c13 -14 26 -23 29 -20z"/>
<path d="M690 2454 c0 -8 5 -12 10 -9 6 3 10 10 10 16 0 5 -4 9 -10 9 -5 0
-10 -7 -10 -16z"/>
<path d="M662 2440 c0 -14 2 -19 5 -12 2 6 2 18 0 25 -3 6 -5 1 -5 -13z"/>
<path d="M802 2440 c0 -14 2 -19 5 -12 2 6 2 18 0 25 -3 6 -5 1 -5 -13z"/>
<path d="M1210 2451 c-100 -17 -172 -67 -216 -153 -29 -57 -29 -57 -3 -51 14
4 17 8 9 13 -19 12 16 69 46 76 32 8 116 -1 169 -18 l40 -13 -65 -6 -65 -6 83
-1 c111 -3 223 -27 304 -65 37 -18 63 -28 59 -22 -5 5 -16 35 -25 66 -37 130
-178 206 -336 180z"/>
<path d="M716 2429 c3 -6 0 -15 -7 -20 -9 -5 -16 -3 -19 7 -3 8 -10 -10 -16
-40 -5 -30 -6 -52 -2 -50 4 3 8 13 9 22 0 9 5 2 10 -16 12 -42 41 -40 49 3 6
29 6 29 14 7 4 -13 10 -22 12 -19 5 5 -45 117 -52 117 -3 0 -2 -5 2 -11z"/>
<path d="M440 2398 c0 -7 5 -20 11 -28 9 -13 10 -12 5 3 -8 24 -4 22 67 -26
69 -48 98 -66 82 -50 -10 10 -130 94 -152 107 -8 4 -13 2 -13 -6z"/>
<path d="M460 2346 c0 -3 13 -37 29 -77 20 -49 41 -83 63 -101 37 -31 20 -39
-19 -8 -14 11 -33 20 -42 19 -10 0 -6 -4 9 -10 26 -11 60 -38 60 -48 0 -3 -10
-18 -22 -32 -13 -14 -29 -36 -36 -49 -7 -15 -1 -10 15 10 47 61 130 138 170
159 21 11 31 20 21 21 -9 0 -19 6 -22 13 -3 6 -4 5 -3 -5 1 -9 -2 -17 -8 -18
-5 -1 -14 -8 -18 -16 -13 -24 -26 -16 -33 21 -5 28 -17 42 -66 76 -33 22 -61
39 -63 37 -2 -2 12 -34 30 -73 27 -57 33 -65 34 -42 1 30 26 46 44 28 8 -8 7
-11 -5 -11 -21 0 -29 -46 -12 -61 28 -23 13 -28 -21 -7 -27 18 -42 40 -66 101
-27 67 -39 89 -39 73z m150 -161 c7 -8 9 -15 6 -15 -4 0 -14 7 -22 15 -9 8
-11 15 -6 15 5 0 15 -7 22 -15z"/>
<path d="M661 2294 c0 -11 3 -14 6 -6 3 7 2 16 -1 19 -3 4 -6 -2 -5 -13z"/>
<path d="M771 2273 c-1 -13 -10 -24 -22 -28 -29 -10 -18 -16 12 -7 21 6 24 11
18 32 -6 23 -7 23 -8 3z"/>
<path d="M1043 2283 c9 -2 25 -2 35 0 9 3 1 5 -18 5 -19 0 -27 -2 -17 -5z"/>
<path d="M1063 2253 c9 -2 23 -2 30 0 6 3 -1 5 -18 5 -16 0 -22 -2 -12 -5z"/>
<path d="M1150 2235 c25 -8 56 -16 70 -19 22 -6 22 -5 -3 5 -15 6 -25 15 -21
20 3 5 -16 9 -43 8 l-48 -1 45 -13z"/>
<path d="M1233 2233 c9 -2 23 -2 30 0 6 3 -1 5 -18 5 -16 0 -22 -2 -12 -5z"/>
<path d="M1288 2223 c7 -3 16 -2 19 1 4 3 -2 6 -13 5 -11 0 -14 -3 -6 -6z"/>
<path d="M1018 2213 c7 -3 16 -2 19 1 4 3 -2 6 -13 5 -11 0 -14 -3 -6 -6z"/>
<path d="M1328 2213 c6 -2 18 -2 25 0 6 3 1 5 -13 5 -14 0 -19 -2 -12 -5z"/>
<path d="M1058 2203 c7 -3 16 -2 19 1 4 3 -2 6 -13 5 -11 0 -14 -3 -6 -6z"/>
<path d="M1257 2199 c7 -7 15 -10 18 -7 3 3 -2 9 -12 12 -14 6 -15 5 -6 -5z"/>
<path d="M1385 2200 c11 -5 27 -9 35 -9 9 0 8 4 -5 9 -11 5 -27 9 -35 9 -9 0
-8 -4 5 -9z"/>
<path d="M399 2172 c6 -2 11 -12 11 -21 0 -19 38 -41 71 -41 22 0 39 32 21 38
-7 2 -18 9 -25 16 -6 7 -30 12 -51 12 -21 0 -34 -2 -27 -4z"/>
<path d="M910 2165 c-7 -9 -11 -17 -9 -20 3 -2 10 5 17 15 14 24 10 26 -8 5z"/>
<path d="M1160 2170 c8 -5 20 -10 25 -10 6 0 3 5 -5 10 -8 5 -19 10 -25 10 -5
0 -3 -5 5 -10z"/>
<path d="M360 2145 c19 -14 36 -25 38 -25 3 0 -7 11 -22 25 -15 14 -32 25 -38
25 -7 0 3 -11 22 -25z"/>
<path d="M1230 2140 c8 -5 20 -10 25 -10 6 0 3 5 -5 10 -8 5 -19 10 -25 10 -5
0 -3 -5 5 -10z"/>
<path d="M892 2110 c0 -14 2 -19 5 -12 2 6 2 18 0 25 -3 6 -5 1 -5 -13z"/>
<path d="M1270 2126 c0 -3 9 -10 20 -16 11 -6 20 -8 20 -6 0 3 -9 10 -20 16
-11 6 -20 8 -20 6z"/>
<path d="M424 2106 c11 -9 36 -15 55 -15 l36 2 -40 6 c-22 4 -47 10 -55 15 -8
4 -6 0 4 -8z"/>
<path d="M1027 2099 c4 -13 8 -18 11 -10 2 7 -1 18 -6 23 -8 8 -9 4 -5 -13z"/>
<path d="M634 2073 c-17 -21 -41 -56 -54 -78 -13 -22 -35 -52 -48 -67 -14 -16
-20 -28 -14 -28 7 0 12 5 12 10 0 6 6 10 13 10 6 0 22 22 35 49 12 27 38 68
57 91 19 23 35 44 35 46 0 10 -8 2 -36 -33z"/>
<path d="M1320 2096 c0 -2 7 -7 16 -10 8 -3 12 -2 9 4 -6 10 -25 14 -25 6z"/>
<path d="M1185 2061 c8 -17 19 -33 25 -36 5 -3 1 10 -11 29 -25 43 -36 48 -14
7z"/>
<path d="M880 1995 c0 -81 -1 -85 -19 -76 -15 8 -20 7 -25 -5 -4 -11 -1 -14
12 -12 9 1 23 -1 30 -5 9 -6 12 13 12 87 0 53 -2 96 -5 96 -3 0 -5 -38 -5 -85z"/>
<path d="M1042 2050 c0 -14 2 -19 5 -12 2 6 2 18 0 25 -3 6 -5 1 -5 -13z"/>
<path d="M1407 2043 c12 -10 29 -34 38 -53 15 -33 16 -34 10 -5 -8 35 -20 52
-49 66 -20 10 -20 9 1 -8z"/>
<path d="M822 2013 c-28 -40 -64 -114 -59 -120 3 -2 15 16 26 42 11 25 30 59
41 75 12 17 19 30 16 30 -2 0 -13 -12 -24 -27z"/>
<path d="M1280 2036 c0 -2 8 -10 18 -17 15 -13 16 -12 3 4 -13 16 -21 21 -21
13z"/>
<path d="M470 1990 c-6 -11 -8 -20 -6 -20 3 0 10 9 16 20 6 11 8 20 6 20 -3 0
-10 -9 -16 -20z"/>
<path d="M1054 1900 c0 -63 1 -91 3 -62 4 56 22 69 50 35 8 -10 11 -12 7 -4
-4 8 -13 32 -21 55 -11 34 -13 36 -9 9 4 -25 2 -31 -9 -27 -9 4 -15 25 -18 57
-2 29 -3 0 -3 -63z"/>
<path d="M1503 1964 c70 -69 77 -82 84 -174 5 -69 4 -82 -8 -78 -8 3 -17 18
-20 34 -5 23 -7 24 -8 7 -1 -28 -5 -28 -47 -2 -19 11 -34 18 -34 15 0 -3 26
-20 57 -38 53 -30 55 -33 33 -39 -25 -7 -11 -13 23 -10 14 2 17 -6 17 -41 0
-24 3 -54 6 -68 5 -20 4 -22 -5 -10 -9 12 -10 8 -5 -15 4 -16 8 -31 9 -33 2
-2 9 28 15 66 12 67 6 176 -16 262 -6 24 -5 23 15 -5 11 -16 21 -25 21 -19 0
17 -104 137 -146 168 -37 27 -37 26 9 -20z"/>
<path d="M1265 1950 c10 -11 20 -20 23 -20 3 0 -3 9 -13 20 -10 11 -20 20 -23
20 -3 0 3 -9 13 -20z"/>
<path d="M1331 1934 c0 -11 3 -14 6 -6 3 7 2 16 -1 19 -3 4 -6 -2 -5 -13z"/>
<path d="M1462 1930 c0 -14 2 -19 5 -12 2 6 2 18 0 25 -3 6 -5 1 -5 -13z"/>
<path d="M800 1905 c0 -8 5 -15 10 -15 6 0 10 7 10 15 0 8 -4 15 -10 15 -5 0
-10 -7 -10 -15z"/>
<path d="M1359 1852 c60 -57 101 -90 101 -79 0 3 -25 24 -55 47 -41 31 -55 49
-56 69 -1 18 -3 21 -6 8 -5 -18 -5 -18 -27 0 -13 10 7 -10 43 -45z"/>
<path d="M692 1880 c0 -14 2 -19 5 -12 2 6 2 18 0 25 -3 6 -5 1 -5 -13z"/>
<path d="M1472 1875 c0 -16 2 -22 5 -12 2 9 2 23 0 30 -3 6 -5 -1 -5 -18z"/>
<path d="M480 1860 c-12 -16 -19 -30 -16 -30 2 0 14 14 26 30 12 17 19 30 16
30 -2 0 -14 -13 -26 -30z"/>
<path d="M922 1870 c0 -14 2 -19 5 -12 2 6 2 18 0 25 -3 6 -5 1 -5 -13z"/>
<path d="M1190 1885 c0 -5 11 -28 25 -50 30 -50 31 -55 3 -56 -22 0 -22 -1 -3
-9 28 -12 37 -12 29 1 -4 8 1 9 17 5 20 -6 21 -5 6 4 -9 6 -31 34 -47 63 -16
29 -30 48 -30 42z"/>
<path d="M532 1850 c0 -14 2 -19 5 -12 2 6 2 18 0 25 -3 6 -5 1 -5 -13z"/>
<path d="M736 1845 c-9 -26 -7 -32 5 -12 6 10 9 21 6 23 -2 3 -7 -2 -11 -11z"/>
<path d="M892 1835 c0 -16 2 -22 5 -12 2 9 2 23 0 30 -3 6 -5 -1 -5 -18z"/>
<path d="M682 1825 c0 -16 2 -22 5 -12 2 9 2 23 0 30 -3 6 -5 -1 -5 -18z"/>
<path d="M931 1824 c0 -11 3 -14 6 -6 3 7 2 16 -1 19 -3 4 -6 -2 -5 -13z"/>
<path d="M1130 1826 c0 -2 8 -10 18 -17 15 -13 16 -12 3 4 -13 16 -21 21 -21
13z"/>
<path d="M440 1800 c-6 -11 -8 -20 -6 -20 3 0 10 9 16 20 6 11 8 20 6 20 -3 0
-10 -9 -16 -20z"/>
<path d="M523 1740 c0 -41 2 -58 4 -37 2 20 2 54 0 75 -2 20 -4 3 -4 -38z"/>
<path d="M1200 1750 c24 -23 54 -46 65 -52 26 -14 22 -10 -50 46 -59 46 -59
46 -15 6z"/>
<path d="M782 1764 c-28 -19 -29 -34 -1 -27 14 4 17 8 9 13 -8 5 -2 11 16 18
16 6 22 11 14 11 -9 1 -26 -6 -38 -15z"/>
<path d="M845 1770 c-7 -12 2 -12 30 0 19 8 19 9 -2 9 -12 1 -25 -3 -28 -9z"/>
<path d="M956 1750 c3 -14 11 -32 16 -40 6 -10 7 -7 2 10 -3 14 -11 32 -16 40
-6 10 -7 7 -2 -10z"/>
<path d="M1063 1715 c0 -27 2 -38 4 -22 2 15 2 37 0 50 -2 12 -4 0 -4 -28z"/>
<path d="M911 1734 c0 -11 3 -14 6 -6 3 7 2 16 -1 19 -3 4 -6 -2 -5 -13z"/>
<path d="M672 1720 c0 -14 2 -19 5 -12 2 6 2 18 0 25 -3 6 -5 1 -5 -13z"/>
<path d="M685 1688 c-3 -13 -6 -41 -8 -63 -2 -22 -6 -45 -10 -52 -4 -6 0 -13
8 -17 9 -3 16 -19 16 -38 2 -31 2 -32 6 -5 4 24 7 26 19 16 13 -11 14 -9 8 15
-4 19 -1 33 11 46 22 25 36 26 29 3 -5 -16 -4 -16 6 0 9 14 19 17 43 12 49
-10 91 -27 100 -42 12 -20 26 -15 24 8 -2 28 -41 44 -140 58 -96 13 -106 14
-87 1 13 -8 12 -10 -4 -10 -16 0 -18 6 -14 45 6 48 2 60 -7 23z"/>
<path d="M1408 1703 c7 -3 16 -2 19 1 4 3 -2 6 -13 5 -11 0 -14 -3 -6 -6z"/>
<path d="M1450 1696 c0 -9 40 -13 46 -5 3 5 -6 9 -20 9 -14 0 -26 -2 -26 -4z"/>
<path d="M931 1670 c0 -8 4 -24 9 -35 5 -13 9 -14 9 -5 0 8 -4 24 -9 35 -5 13
-9 14 -9 5z"/>
<path d="M990 1664 c0 -13 95 -173 114 -192 11 -12 12 -8 3 21 -7 20 -14 31
-18 26 -3 -5 -27 28 -52 73 -26 46 -47 78 -47 72z"/>
<path d="M1571 1644 c0 -11 3 -14 6 -6 3 7 2 16 -1 19 -3 4 -6 -2 -5 -13z"/>
<path d="M532 1630 c0 -14 2 -19 5 -12 2 6 2 18 0 25 -3 6 -5 1 -5 -13z"/>
<path d="M1072 1625 c0 -16 2 -22 5 -12 2 9 2 23 0 30 -3 6 -5 -1 -5 -18z"/>
<path d="M878 1633 c7 -3 16 -2 19 1 4 3 -2 6 -13 5 -11 0 -14 -3 -6 -6z"/>
<path d="M1180 1630 c-18 -12 -2 -12 25 0 13 6 15 9 5 9 -8 0 -22 -4 -30 -9z"/>
<path d="M1581 1594 c0 -11 3 -14 6 -6 3 7 2 16 -1 19 -3 4 -6 -2 -5 -13z"/>
<path d="M1327 1568 c7 -48 -17 -53 -34 -8 -21 55 -73 30 -73 -34 0 -37 -18
-32 -23 7 -3 29 -4 28 -5 -9 -2 -53 15 -104 36 -104 13 0 13 2 -3 13 -10 8
-15 19 -11 25 3 5 0 12 -6 15 -7 2 -10 8 -5 13 4 4 14 -2 23 -14 19 -28 60
-29 69 -2 7 21 25 28 25 10 0 -5 -5 -10 -12 -10 -6 0 -9 -3 -5 -6 3 -4 -1 -13
-9 -21 -17 -17 -12 -29 6 -18 32 20 52 131 30 165 -6 10 -8 3 -3 -22z m-65
-60 c-9 -9 -12 -7 -12 12 0 19 3 21 12 12 9 -9 9 -15 0 -24z m68 2 c0 -5 -9
-10 -20 -10 -11 0 -20 5 -20 10 0 6 9 10 20 10 11 0 20 -4 20 -10z"/>
<path d="M811 1577 c-6 -8 -14 -28 -17 -45 -4 -18 -13 -32 -20 -32 -8 0 -14
-5 -14 -10 0 -19 30 -70 41 -70 6 0 3 7 -6 16 -13 13 -14 19 -4 25 8 4 18 4
24 -1 14 -12 55 -9 55 4 0 5 3 7 6 4 3 -4 1 -16 -6 -27 -8 -17 -8 -21 3 -21 8
0 14 6 14 13 1 6 6 27 11 45 7 21 7 30 1 26 -6 -3 -17 -3 -27 1 -11 4 -13 8
-5 13 8 5 8 16 -2 40 -15 34 -35 41 -54 19z m26 -64 c-3 -10 -5 -4 -5 12 0 17
2 24 5 18 2 -7 2 -21 0 -30z m-37 -33 c0 -5 -4 -10 -9 -10 -6 0 -13 5 -16 10
-3 6 1 10 9 10 9 0 16 -4 16 -10z"/>
<path d="M960 1585 c0 -5 5 -17 10 -25 5 -8 10 -10 10 -5 0 6 -5 17 -10 25 -5
8 -10 11 -10 5z"/>
<path d="M1081 1564 c0 -11 3 -14 6 -6 3 7 2 16 -1 19 -3 4 -6 -2 -5 -13z"/>
<path d="M1442 1550 c0 -19 2 -27 5 -17 2 9 2 25 0 35 -3 9 -5 1 -5 -18z"/>
<path d="M890 1545 c0 -14 4 -25 9 -25 4 0 6 11 3 25 -2 14 -6 25 -8 25 -2 0
-4 -11 -4 -25z"/>
<path d="M752 1535 c0 -16 2 -22 5 -12 2 9 2 23 0 30 -3 6 -5 -1 -5 -18z"/>
<path d="M1452 1485 c0 -16 2 -22 5 -12 2 9 2 23 0 30 -3 6 -5 -1 -5 -18z"/>
<path d="M1000 1491 c0 -6 4 -13 10 -16 6 -3 7 1 4 9 -7 18 -14 21 -14 7z"/>
<path d="M1392 1475 c0 -16 2 -22 5 -12 2 9 2 23 0 30 -3 6 -5 -1 -5 -18z"/>
<path d="M1582 1475 c-17 -37 -14 -45 4 -12 9 16 14 31 11 33 -2 2 -9 -7 -15
-21z"/>
<path d="M702 1445 c0 -16 2 -22 5 -12 2 9 2 23 0 30 -3 6 -5 -1 -5 -18z"/>
<path d="M1030 1440 c6 -11 13 -20 16 -20 2 0 0 9 -6 20 -6 11 -13 20 -16 20
-2 0 0 -9 6 -20z"/>
<path d="M1155 1410 c16 -19 49 -56 74 -82 24 -25 40 -51 37 -57 -4 -6 -5 -11
-2 -11 3 0 11 10 17 23 6 12 8 18 3 14 -4 -4 -42 27 -84 71 -41 43 -62 62 -45
42z"/>
<path d="M1332 1303 c2 -21 9 -29 27 -31 38 -6 50 16 21 38 -36 28 -52 25 -48
-7z"/>
<path d="M1026 1291 c-7 -11 22 -23 35 -15 5 3 9 9 9 15 0 12 -37 12 -44 0z"/>
<path d="M1050 1203 c72 -5 92 -12 86 -28 -3 -8 -1 -15 4 -15 6 0 10 8 10 19
0 23 -28 31 -95 29 l-50 -1 45 -4z"/>
<path d="M1297 1150 c8 -31 23 -34 23 -6 0 16 -6 26 -14 26 -9 0 -12 -7 -9
-20z"/>
<path d="M1346 1151 c-4 -7 -5 -15 -2 -18 9 -9 19 4 14 18 -4 11 -6 11 -12 0z"/>
<path d="M1364 1125 c-3 -13 -4 -30 -1 -37 3 -8 6 -6 6 5 1 10 5 16 9 13 4 -2
14 5 21 17 11 18 11 20 0 10 -18 -18 -30 -16 -23 2 4 8 3 15 0 15 -3 0 -8 -11
-12 -25z"/>
<path d="M1320 1066 c0 -2 8 -10 18 -17 15 -13 16 -12 3 4 -13 16 -21 21 -21
13z"/>
<path d="M294 1038 c-43 -50 -58 -71 -47 -65 6 4 26 25 43 47 34 43 37 55 4
18z"/>
<path d="M223 948 c-15 -20 -25 -38 -20 -38 3 0 12 11 21 25 17 26 16 35 -1
13z"/>
<path d="M933 1047 c0 -7 17 -12 46 -13 45 -2 39 5 -20 19 -17 4 -26 2 -26 -6z"/>
<path d="M1115 1044 l-40 -13 40 6 c40 6 52 10 44 17 -2 2 -22 -3 -44 -10z"/>
<path d="M1140 885 c0 -5 5 -17 10 -25 5 -8 10 -10 10 -5 0 6 -5 17 -10 25 -5
8 -10 11 -10 5z"/>
</g>
</svg>
